<mxfile host="app.diagrams.net" modified="2023-11-28T16:35:08.633Z" agent="Mozilla/5.0 (Windows NT 10.0; Win64; x64; rv:120.0) Gecko/20100101 Firefox/120.0" etag="yDece2S6ahGebfteNrAd" version="21.3.7" type="device">
  <diagram name="Page-1" id="c7488fd3-1785-93aa-aadb-54a6760d102a">
    <mxGraphModel dx="1027" dy="955" grid="1" gridSize="10" guides="1" tooltips="1" connect="1" arrows="1" fold="1" page="1" pageScale="1" pageWidth="1100" pageHeight="850" background="none" math="0" shadow="0">
      <root>
        <mxCell id="0" />
        <mxCell id="1" parent="0" />
        <mxCell id="CDbokZhid0h3c1UekMTh-214" value="Student gets notified of new events (every notification will follow this schema)" style="swimlane;html=1;childLayout=stackLayout;horizontal=1;startSize=20;horizontalStack=0;rounded=0;shadow=0;labelBackgroundColor=none;strokeWidth=1;fontFamily=Verdana;fontSize=8;align=center;" vertex="1" parent="1">
          <mxGeometry x="60" y="140" width="660" height="350" as="geometry" />
        </mxCell>
        <mxCell id="CDbokZhid0h3c1UekMTh-215" value="Student" style="swimlane;html=1;startSize=20;horizontal=0;" vertex="1" parent="CDbokZhid0h3c1UekMTh-214">
          <mxGeometry y="20" width="660" height="180" as="geometry" />
        </mxCell>
        <mxCell id="CDbokZhid0h3c1UekMTh-225" value="" style="points=[[0.145,0.145,0],[0.5,0,0],[0.855,0.145,0],[1,0.5,0],[0.855,0.855,0],[0.5,1,0],[0.145,0.855,0],[0,0.5,0]];shape=mxgraph.bpmn.event;html=1;verticalLabelPosition=bottom;labelBackgroundColor=#ffffff;verticalAlign=top;align=center;perimeter=ellipsePerimeter;outlineConnect=0;aspect=fixed;outline=end;symbol=terminate2;" vertex="1" parent="CDbokZhid0h3c1UekMTh-215">
          <mxGeometry x="360" y="75" width="30" height="30" as="geometry" />
        </mxCell>
        <mxCell id="CDbokZhid0h3c1UekMTh-301" style="edgeStyle=orthogonalEdgeStyle;rounded=0;orthogonalLoop=1;jettySize=auto;html=1;entryX=0;entryY=0.5;entryDx=0;entryDy=0;entryPerimeter=0;" edge="1" parent="CDbokZhid0h3c1UekMTh-215" source="CDbokZhid0h3c1UekMTh-298" target="CDbokZhid0h3c1UekMTh-225">
          <mxGeometry relative="1" as="geometry" />
        </mxCell>
        <mxCell id="CDbokZhid0h3c1UekMTh-298" value="Receive notification" style="points=[[0.145,0.145,0],[0.5,0,0],[0.855,0.145,0],[1,0.5,0],[0.855,0.855,0],[0.5,1,0],[0.145,0.855,0],[0,0.5,0]];shape=mxgraph.bpmn.event;html=1;verticalLabelPosition=bottom;labelBackgroundColor=#ffffff;verticalAlign=top;align=center;perimeter=ellipsePerimeter;outlineConnect=0;aspect=fixed;outline=catching;symbol=message;" vertex="1" parent="CDbokZhid0h3c1UekMTh-215">
          <mxGeometry x="240" y="73.5" width="33" height="33" as="geometry" />
        </mxCell>
        <mxCell id="CDbokZhid0h3c1UekMTh-245" value="Platform" style="swimlane;html=1;startSize=20;horizontal=0;" vertex="1" parent="CDbokZhid0h3c1UekMTh-214">
          <mxGeometry y="200" width="660" height="150" as="geometry" />
        </mxCell>
        <mxCell id="CDbokZhid0h3c1UekMTh-279" style="edgeStyle=orthogonalEdgeStyle;rounded=0;orthogonalLoop=1;jettySize=auto;html=1;entryX=0;entryY=0.5;entryDx=0;entryDy=0;" edge="1" parent="CDbokZhid0h3c1UekMTh-245" source="CDbokZhid0h3c1UekMTh-274" target="CDbokZhid0h3c1UekMTh-276">
          <mxGeometry relative="1" as="geometry" />
        </mxCell>
        <mxCell id="CDbokZhid0h3c1UekMTh-274" value="" style="ellipse;whiteSpace=wrap;html=1;rounded=0;shadow=0;labelBackgroundColor=none;strokeWidth=1;fontFamily=Verdana;fontSize=8;align=center;" vertex="1" parent="CDbokZhid0h3c1UekMTh-245">
          <mxGeometry x="55" y="60" width="30" height="30" as="geometry" />
        </mxCell>
        <mxCell id="CDbokZhid0h3c1UekMTh-275" value="&lt;font style=&quot;font-size: 19px;&quot;&gt;Start&lt;/font&gt;" style="text;html=1;strokeColor=none;fillColor=none;align=center;verticalAlign=middle;whiteSpace=wrap;rounded=0;" vertex="1" parent="CDbokZhid0h3c1UekMTh-245">
          <mxGeometry x="40" y="90" width="60" height="30" as="geometry" />
        </mxCell>
        <mxCell id="CDbokZhid0h3c1UekMTh-284" style="edgeStyle=orthogonalEdgeStyle;rounded=0;orthogonalLoop=1;jettySize=auto;html=1;entryX=0;entryY=0.5;entryDx=0;entryDy=0;entryPerimeter=0;" edge="1" parent="CDbokZhid0h3c1UekMTh-245" source="CDbokZhid0h3c1UekMTh-276" target="CDbokZhid0h3c1UekMTh-281">
          <mxGeometry relative="1" as="geometry" />
        </mxCell>
        <mxCell id="CDbokZhid0h3c1UekMTh-276" value="&lt;font size=&quot;1&quot;&gt;&lt;br&gt;&lt;/font&gt;" style="rounded=1;whiteSpace=wrap;html=1;shadow=0;labelBackgroundColor=none;strokeWidth=1;fontFamily=Verdana;fontSize=8;align=center;" vertex="1" parent="CDbokZhid0h3c1UekMTh-245">
          <mxGeometry x="150" y="56.5" width="70" height="37" as="geometry" />
        </mxCell>
        <mxCell id="CDbokZhid0h3c1UekMTh-280" value="New tournament is created" style="text;html=1;strokeColor=none;fillColor=none;align=center;verticalAlign=middle;whiteSpace=wrap;rounded=0;" vertex="1" parent="CDbokZhid0h3c1UekMTh-245">
          <mxGeometry x="137.5" y="93.5" width="95" height="30" as="geometry" />
        </mxCell>
        <mxCell id="CDbokZhid0h3c1UekMTh-297" style="edgeStyle=orthogonalEdgeStyle;rounded=0;orthogonalLoop=1;jettySize=auto;html=1;entryX=0;entryY=0.5;entryDx=0;entryDy=0;entryPerimeter=0;" edge="1" parent="CDbokZhid0h3c1UekMTh-245" source="CDbokZhid0h3c1UekMTh-281" target="CDbokZhid0h3c1UekMTh-296">
          <mxGeometry relative="1" as="geometry" />
        </mxCell>
        <mxCell id="CDbokZhid0h3c1UekMTh-281" value="" style="points=[[0.25,0,0],[0.5,0,0],[0.75,0,0],[1,0.25,0],[1,0.5,0],[1,0.75,0],[0.75,1,0],[0.5,1,0],[0.25,1,0],[0,0.75,0],[0,0.5,0],[0,0.25,0]];shape=mxgraph.bpmn.task;whiteSpace=wrap;rectStyle=rounded;size=10;html=1;container=1;expand=0;collapsible=0;taskMarker=abstract;isLoopSub=1;isLoopMultiParallel=1;" vertex="1" parent="CDbokZhid0h3c1UekMTh-245">
          <mxGeometry x="261.25" y="12" width="218.75" height="126" as="geometry" />
        </mxCell>
        <mxCell id="CDbokZhid0h3c1UekMTh-293" style="edgeStyle=orthogonalEdgeStyle;rounded=0;orthogonalLoop=1;jettySize=auto;html=1;" edge="1" parent="CDbokZhid0h3c1UekMTh-281" source="CDbokZhid0h3c1UekMTh-292" target="CDbokZhid0h3c1UekMTh-267">
          <mxGeometry relative="1" as="geometry" />
        </mxCell>
        <mxCell id="CDbokZhid0h3c1UekMTh-292" value="" style="ellipse;whiteSpace=wrap;html=1;rounded=0;shadow=0;labelBackgroundColor=none;strokeWidth=1;fontFamily=Verdana;fontSize=8;align=center;" vertex="1" parent="CDbokZhid0h3c1UekMTh-281">
          <mxGeometry x="18.75" y="48" width="30" height="30" as="geometry" />
        </mxCell>
        <mxCell id="CDbokZhid0h3c1UekMTh-267" value="" style="points=[[0.145,0.145,0],[0.5,0,0],[0.855,0.145,0],[1,0.5,0],[0.855,0.855,0],[0.5,1,0],[0.145,0.855,0],[0,0.5,0]];shape=mxgraph.bpmn.event;html=1;verticalLabelPosition=bottom;labelBackgroundColor=#ffffff;verticalAlign=top;align=center;perimeter=ellipsePerimeter;outlineConnect=0;aspect=fixed;outline=end;symbol=message;" vertex="1" parent="CDbokZhid0h3c1UekMTh-281">
          <mxGeometry x="128.75" y="48" width="30" height="30" as="geometry" />
        </mxCell>
        <mxCell id="CDbokZhid0h3c1UekMTh-291" value="Notify student" style="text;html=1;strokeColor=none;fillColor=none;align=center;verticalAlign=middle;whiteSpace=wrap;rounded=0;" vertex="1" parent="CDbokZhid0h3c1UekMTh-281">
          <mxGeometry x="96.25" y="78" width="95" height="30" as="geometry" />
        </mxCell>
        <mxCell id="CDbokZhid0h3c1UekMTh-296" value="" style="points=[[0.145,0.145,0],[0.5,0,0],[0.855,0.145,0],[1,0.5,0],[0.855,0.855,0],[0.5,1,0],[0.145,0.855,0],[0,0.5,0]];shape=mxgraph.bpmn.event;html=1;verticalLabelPosition=bottom;labelBackgroundColor=#ffffff;verticalAlign=top;align=center;perimeter=ellipsePerimeter;outlineConnect=0;aspect=fixed;outline=end;symbol=terminate2;" vertex="1" parent="CDbokZhid0h3c1UekMTh-245">
          <mxGeometry x="545" y="60" width="30" height="30" as="geometry" />
        </mxCell>
        <mxCell id="CDbokZhid0h3c1UekMTh-302" style="edgeStyle=orthogonalEdgeStyle;rounded=0;orthogonalLoop=1;jettySize=auto;html=1;entryX=0.5;entryY=1;entryDx=0;entryDy=0;entryPerimeter=0;" edge="1" parent="CDbokZhid0h3c1UekMTh-214" source="CDbokZhid0h3c1UekMTh-267" target="CDbokZhid0h3c1UekMTh-298">
          <mxGeometry relative="1" as="geometry">
            <Array as="points">
              <mxPoint x="405" y="170" />
              <mxPoint x="257" y="170" />
              <mxPoint x="257" y="127" />
            </Array>
          </mxGeometry>
        </mxCell>
        <mxCell id="CDbokZhid0h3c1UekMTh-289" value="New tournament is created" style="text;html=1;strokeColor=none;fillColor=none;align=center;verticalAlign=middle;whiteSpace=wrap;rounded=0;" vertex="1" parent="1">
          <mxGeometry x="197.5" y="433.5" width="95" height="30" as="geometry" />
        </mxCell>
        <mxCell id="CDbokZhid0h3c1UekMTh-290" value="New tournament is created" style="text;html=1;strokeColor=none;fillColor=none;align=center;verticalAlign=middle;whiteSpace=wrap;rounded=0;" vertex="1" parent="1">
          <mxGeometry x="197.5" y="433.5" width="95" height="30" as="geometry" />
        </mxCell>
      </root>
    </mxGraphModel>
  </diagram>
</mxfile>
